<?xml version="1.0" encoding="UTF-8" standalone="no"?>
<!-- Created with Inkscape (http://www.inkscape.org/) -->

<svg
   xmlns:dc="http://purl.org/dc/elements/1.1/"
   xmlns:cc="http://creativecommons.org/ns#"
   xmlns:rdf="http://www.w3.org/1999/02/22-rdf-syntax-ns#"
   xmlns:svg="http://www.w3.org/2000/svg"
   xmlns="http://www.w3.org/2000/svg"
   xmlns:sodipodi="http://sodipodi.sourceforge.net/DTD/sodipodi-0.dtd"
   xmlns:inkscape="http://www.inkscape.org/namespaces/inkscape"
   width="400"
   height="400"
   id="svg3978"
   version="1.1"
   inkscape:version="0.48.4 r9939"
   sodipodi:docname="wiipad.svg"
   inkscape:export-filename="/home/berfenger/dev/ubuntu/wiipad/res/wiipad.png"
   inkscape:export-xdpi="10.8"
   inkscape:export-ydpi="10.8">
  <defs
     id="defs3980" />
  <sodipodi:namedview
     id="base"
     pagecolor="#ffffff"
     bordercolor="#666666"
     borderopacity="1.0"
     inkscape:pageopacity="0.0"
     inkscape:pageshadow="2"
     inkscape:zoom="0.7"
     inkscape:cx="-111.42857"
     inkscape:cy="19.23779"
     inkscape:document-units="px"
     inkscape:current-layer="layer1"
     showgrid="false"
     inkscape:window-width="1920"
     inkscape:window-height="1009"
     inkscape:window-x="-4"
     inkscape:window-y="25"
     inkscape:window-maximized="1" />
  <metadata
     id="metadata3983">
    <rdf:RDF>
      <cc:Work
         rdf:about="">
        <dc:format>image/svg+xml</dc:format>
        <dc:type
           rdf:resource="http://purl.org/dc/dcmitype/StillImage" />
        <dc:title></dc:title>
      </cc:Work>
    </rdf:RDF>
  </metadata>
  <g
     inkscape:label="Capa 1"
     inkscape:groupmode="layer"
     id="layer1"
     transform="translate(0,-652.36218)">
    <path
       style="opacity:0.3;fill:#000000;fill-opacity:1;stroke:#000000;stroke-width:6.11582327;stroke-linejoin:miter;stroke-miterlimit:4;stroke-opacity:1"
       d="m -93.756165,856.21292 c -6.753055,1.3573 -14.943865,10.5286 -14.943865,17.6077 l 0,114.31258 c 0,8.0903 9.624455,17.5181 17.819655,17.5181 43.989,2.1015 132.1323,0 132.1323,0 l 0,131.6636 c 0,8.0903 9.57304,18.2884 17.76824,18.2884 l 114.312645,0 c 8.19531,0 17.35746,-10.1981 17.35746,-18.2884 l 0,-131.6636 c 0,0 88.25971,0 132.1836,0 8.19531,0 17.25474,-9.4278 17.25474,-17.5181 l 0,-114.31258 c 0,-8.0903 -9.06253,-17.3842 -17.25474,-17.6077 -44.0648,-0.7327 -132.1836,0 -132.1836,0 l 0,-125.82232 c 0,-8.09029 -9.52163,-17.84094 -17.71694,-17.84094 l -114.312645,0 c -8.19519,0 -17.40876,9.75065 -17.40876,17.84094 l 0,125.82232 c -44.9398509,0.9801 -90.384,-0.1035 -135.00809,0 z"
       id="rect3015-0"
       inkscape:connector-curvature="0"
       sodipodi:nodetypes="cssccssssccssccsssscc" />
    <path
       style="fill:#dfdbd2;stroke:none;stroke-width:6.11582326999999992;stroke-linejoin:miter;stroke-miterlimit:4;stroke-opacity:1;fill-opacity:1"
       d="m -92.686702,844.18897 c -6.75305,1.3573 -14.943868,10.5286 -14.943868,17.6077 l 0,114.31262 c 0,8.0903 9.624458,17.5181 17.819658,17.5181 43.989,2.1015 132.132297,0 132.132297,0 l 0,131.66351 c 0,8.0903 9.57304,18.2884 17.76824,18.2884 l 114.312645,0 c 8.19531,0 17.35746,-10.1981 17.35746,-18.2884 l 0,-131.66351 c 0,0 88.25971,0 132.1836,0 8.19531,0 17.25474,-9.4278 17.25474,-17.5181 l 0,-114.31262 c 0,-8.0903 -9.06253,-17.3842 -17.25474,-17.6077 -44.0648,-0.7327 -132.1836,0 -132.1836,0 l 0,-125.82232 c 0,-8.09029 -9.52163,-17.84094 -17.71694,-17.84094 l -114.312645,0 c -8.19519,0 -17.40876,9.75065 -17.40876,17.84094 l 0,125.82232 c -44.9398499,0.9801 -90.383997,-0.1035 -135.008087,0 z"
       id="rect3015"
       inkscape:connector-curvature="0"
       sodipodi:nodetypes="cssccssssccssccsssscc" />
    <path
       style="fill:none;stroke:#555555;stroke-width:11.50315857000000008px;stroke-linecap:butt;stroke-linejoin:miter;stroke-opacity:1"
       d="m -60.635452,919.19619 97.205257,0"
       id="path3922"
       inkscape:connector-curvature="0" />
    <path
       style="fill:none;stroke:#555555;stroke-width:11.50315857000000008px;stroke-linecap:butt;stroke-linejoin:miter;stroke-opacity:1"
       d="m 197.51131,918.65149 97.20526,0"
       id="path3922-2"
       inkscape:connector-curvature="0" />
    <path
       style="fill:none;stroke:#555555;stroke-width:11.50315857000000008px;stroke-linecap:butt;stroke-linejoin:miter;stroke-opacity:1"
       d="m 117.29725,741.23217 0,97.2053"
       id="path3922-1"
       inkscape:connector-curvature="0" />
    <path
       style="fill:none;stroke:#555555;stroke-width:11.50315857000000008px;stroke-linecap:butt;stroke-linejoin:miter;stroke-opacity:1"
       d="m 115.24325,999.37899 0,97.20521"
       id="path3922-1-9"
       inkscape:connector-curvature="0" />
  </g>
</svg>
